# xmcd
#
# Track frame offsets:
#	150
#	21214
#	37162
#	54000
#	72720
#	88470
#	111343
#	125299
#	136788
#	152964
#	168227
#	185440
#	205971
#	222742
#	234261
#	248739
#	261566
#	278329
#	306399
#	319639
#
# Disc length: 4406 seconds
#
# Revision: 1
# Processed by: cddbd v1.5.2PL0 Copyright (c) Steve Scherf et al.
# Submitted via: EZCDAudioConverter 7.0.6.1
#
DISCID=2c113414
DTITLE=Revolution: Underground Sounds Of 1968 1/3
DYEAR=1968
DGENRE=
TTITLE0=Deep Purple - And The Address
TTITLE1=Julie Driscoll, Brian Auger and The Trinity - This Wheel's On Fire
TTITLE2=Pretty Things - Talkin' About The Good Times
TTITLE3=Dantalian's Chariot - World War Three
TTITLE4=The Action - A Saying For Today
TTITLE5=Eyes Of Blue - Crossroads Of Time
TTITLE6=Spooky Tooth - Sunshine Help Me
TTITLE7=Barclay James Harvest - Early Morning
TTITLE8=Blonde On Blonde - All Day, All Night
TTITLE9=Idle Race - Happy Birthday/The Birthday Party
TTITLE10=Tomorrow - Revolution
TTITLE11=The Moles - We Are The Moles (Part 1)
TTITLE12=The Move - Blackberry Way
TTITLE13=Genesis - One Eyed Hound
TTITLE14=Keith West - On A Saturday
TTITLE15=Pentangle - Sovay
TTITLE16=The Bystanders - Cave Of Clear Light
TTITLE17=Dantalian's Chariot - Soma (Part 1 and 2)
TTITLE18=The Crazy World Of Arthur Brown - Fire!
TTITLE19=The Bonzo Dog Doo-Dah Band - I'm The Urban Spaceman
EXTD=
EXTT0=
EXTT1=
EXTT2=
EXTT3=
EXTT4=
EXTT5=
EXTT6=
EXTT7=
EXTT8=
EXTT9=
EXTT10=
EXTT11=
EXTT12=
EXTT13=
EXTT14=
EXTT15=
EXTT16=
EXTT17=
EXTT18=
EXTT19=
PLAYORDER=
